<?xml version="1.0" encoding="utf-8"?>
<!-- Generator: Adobe Illustrator 17.1.0, SVG Export Plug-In . SVG Version: 6.00 Build 0)  -->
<!DOCTYPE svg PUBLIC "-//W3C//DTD SVG 1.1//EN" "http://www.w3.org/Graphics/SVG/1.1/DTD/svg11.dtd">
<svg version="1.1" id="Layer_1" xmlns="http://www.w3.org/2000/svg" xmlns:xlink="http://www.w3.org/1999/xlink" x="0px" y="0px"
	 viewBox="0 0 612 792" enable-background="new 0 0 612 792" xml:space="preserve">
<g>
	<path fill="#00AAA6" d="M-58.5,285.6c0-0.1,0-0.1,0-0.2c0-1.2,0-2.4,0-3.5c0,1,0,2-0.1,3.1C-58.6,285.1-58.5,285.3-58.5,285.6z"/>
	<path fill="#00AAA6" d="M-470.2,285.4c0,0.2,0,0.3,0,0.5c0-0.2,0.1-0.5,0.1-0.7c0-1.1-0.1-2.2-0.1-3.3
		C-470.1,283-470.2,284.2-470.2,285.4z"/>
	<g>
		<path fill="none" d="M150.7,528.6c0-5.6-5-5.6-6.9-5.6h-7.6v10.9h7.6c0.5,0,3.3,0,4.6-0.8C149,532.8,150.7,531.5,150.7,528.6z"/>
		<path fill="none" d="M138.6,569.5h-5.8v26.9h4.7c3.3,0,6.8-0.2,9.1-1.9c4.4-3.3,4.6-9,4.6-11c0-1.3-0.1-7.2-3.4-10.9
			C145.7,570,142.9,569.5,138.6,569.5z"/>
		<path fill="none" d="M340.4,522.1c-8.8,0-11.1,7.1-11.1,14.2c0,3.8,0.7,8,3.1,11c2,2.5,5,3.2,7.7,3.2c2.8,0,5.7-0.8,7.7-3.2
			c2.8-3.5,3.1-9,3.1-11.3C350.9,528.1,348.3,522.1,340.4,522.1z"/>
		<path fill="none" d="M289.9,569.4h-6.8v11.4h5.7c3.2,0,8.1-0.2,8.1-5.9C296.9,569.4,292.4,569.4,289.9,569.4z"/>
		<polygon fill="none" points="254.1,540.8 267.2,540.8 260.8,523.7 		"/>
		<path fill="none" d="M173.9,522.9h-5.8v26.9h4.7c3.3,0,6.8-0.2,9.1-1.9c4.4-3.3,4.6-9,4.6-11c0-1.3-0.1-7.2-3.4-10.9
			C180.9,523.5,178.1,522.9,173.9,522.9z"/>
		<path fill="none" d="M377.4,568.6c-8.8,0-11.1,7.1-11.1,14.2c0,3.8,0.7,8,3.1,11c2,2.5,5,3.2,7.7,3.2c2.9,0,5.7-0.8,7.7-3.2
			c2.8-3.5,3.1-9,3.1-11.3C388,574.6,385.4,568.6,377.4,568.6z"/>
		<polygon fill="none" points="510.5,563.8 524.7,563.8 517.8,542.7 		"/>
		<path fill="none" d="M281.4,341.4c-2,21.1-0.6,40,3.2,56.7C280.8,381.4,279.4,362.5,281.4,341.4z"/>
		<path fill="none" d="M109.3,522.1c-8.8,0-11.1,7.1-11.1,14.2c0,3.8,0.7,8,3.1,11c2,2.5,5,3.2,7.7,3.2c2.9,0,5.7-0.8,7.7-3.2
			c2.8-3.5,3.1-9,3.1-11.3C119.8,528.1,117.2,522.1,109.3,522.1z"/>
		<path fill="none" d="M566.6,539.6c-9.3,0-12.4,8.9-12.4,17.9c0,7,2,18,12.1,18c10.4,0,12.3-10.8,12.3-18.7c0-7-1.6-10.4-3.1-12.6
			C574.3,542.3,571.4,539.6,566.6,539.6z"/>
		<path fill="none" d="M72.2,522.1c-8.8,0-11.1,7.1-11.1,14.2c0,3.8,0.7,8,3.1,11c2,2.5,5,3.2,7.7,3.2c2.9,0,5.7-0.8,7.7-3.2
			c2.8-3.5,3.1-9,3.1-11.3C82.8,528.1,80.2,522.1,72.2,522.1z"/>
		<path fill="#808285" d="M39.2,522.3c6.7,0,7.3,4.8,7.5,6h5.2c-0.6-7.9-7.6-9.9-12.5-9.9c-12.4,0-15.2,11-15.2,18.3
			c0,6.8,2.4,17.6,14.6,17.6c6,0,12.3-2.8,13-9.7h-5.3c-0.1,0.8-0.4,2.3-1.7,3.7c-1.5,1.5-3.5,2.1-5.6,2.1c-8,0-9.8-7.1-9.8-13.7
			C29.3,530.9,30.8,522.3,39.2,522.3z"/>
		<path fill="#808285" d="M72.2,518c-3.2,0-8,0.8-11.6,4.7c-3.8,4.1-4.5,9.9-4.5,13.9c0,9.5,3.9,18,15.7,18
			c12.4,0,16.1-9.3,16.1-18.6C87.9,524.2,81.8,518,72.2,518z M79.7,547.3c-2,2.4-4.9,3.2-7.7,3.2c-2.8,0-5.7-0.7-7.7-3.2
			c-2.4-3-3.1-7.2-3.1-11c0-7.1,2.3-14.2,11.1-14.2c8,0,10.6,6,10.6,13.9C82.8,538.3,82.5,543.8,79.7,547.3z"/>
		<path fill="#808285" d="M109.2,518c-3.2,0-8,0.8-11.6,4.7c-3.8,4.1-4.5,9.9-4.5,13.9c0,9.5,3.9,18,15.7,18
			c12.4,0,16.1-9.3,16.1-18.6C125,524.2,118.9,518,109.2,518z M116.7,547.3c-2,2.4-4.9,3.2-7.7,3.2c-2.8,0-5.7-0.7-7.7-3.2
			c-2.4-3-3.1-7.2-3.1-11c0-7.1,2.3-14.2,11.1-14.2c8,0,10.6,6,10.6,13.9C119.8,538.3,119.6,543.8,116.7,547.3z"/>
		<path fill="#808285" d="M149.2,536.1c1.1-0.3,2.6-0.8,4.1-2.3c1.5-1.5,2.5-3.7,2.5-6.2c0-2.8-1.3-5.4-3.9-7.1
			c-2.6-1.6-6.2-1.6-8-1.6h-12.4v34.8h4.8V538h6.1c5.8,0,7,1.5,7.6,6.5c0.3,2.6,0.8,6.9,1.6,9.2h5.2c-1.3-3.9-1.7-6.9-2.2-11
			C154.1,538.5,152.5,537,149.2,536.1z M143.8,533.9h-7.6V523h7.6c1.9,0,6.9,0,6.9,5.6c0,2.9-1.7,4.2-2.4,4.5
			C147.1,533.9,144.3,533.9,143.8,533.9z"/>
		<path fill="#808285" d="M173.3,518.9h-10.1v34.8h9.8c5.1,0,9.4,0,12.8-2.8c2.7-2.1,5.8-6.8,5.8-14.3c0-4.8-1.2-9.5-4.3-13.2
			C183.5,518.9,178,518.9,173.3,518.9z M181.9,547.9c-2.3,1.7-5.8,1.9-9.1,1.9h-4.7v-26.9h5.8c4.2,0,7,0.6,9.3,3.1
			c3.3,3.6,3.4,9.5,3.4,10.9C186.5,538.9,186.4,544.6,181.9,547.9z"/>
		<rect x="197.6" y="518.9" fill="#808285" width="4.8" height="34.8"/>
		<polygon fill="#808285" points="239.2,518.9 234.7,518.9 234.7,547.7 217.6,518.9 210.9,518.9 210.9,553.8 215.3,553.8 
			215.3,524.2 233,553.8 239.2,553.8 		"/>
		<path fill="#808285" d="M258.5,518.9l-14.7,34.8h5l3.8-9.1h16.2l3.8,9.1h5.3l-14.1-34.8H258.5z M254.1,540.8l6.8-17.1l6.4,17.1
			H254.1z"/>
		<path fill="#808285" d="M294.4,522.3c6.7,0,7.3,4.8,7.5,6h5.2c-0.6-7.9-7.6-9.9-12.5-9.9c-12.4,0-15.3,11-15.3,18.3
			c0,6.8,2.4,17.6,14.6,17.6c6,0,12.3-2.8,13-9.7h-5.3c-0.1,0.8-0.4,2.3-1.7,3.7c-1.5,1.5-3.5,2.1-5.6,2.1c-8,0-9.8-7.1-9.8-13.7
			C284.5,530.9,286,522.3,294.4,522.3z"/>
		<rect x="312.7" y="518.9" fill="#808285" width="4.8" height="34.8"/>
		<polygon fill="#808285" points="340.4,515.8 346.3,508.9 341.2,508.9 337.3,515.8 		"/>
		<path fill="#808285" d="M340.3,518c-3.2,0-8,0.8-11.6,4.7c-3.8,4.1-4.5,9.9-4.5,13.9c0,9.5,3.9,18,15.7,18
			c12.4,0,16.1-9.3,16.1-18.6C356,524.2,350,518,340.3,518z M347.8,547.3c-2,2.4-4.9,3.2-7.7,3.2c-2.7,0-5.7-0.7-7.7-3.2
			c-2.4-3-3.1-7.2-3.1-11c0-7.1,2.3-14.2,11.1-14.2c8,0,10.6,6,10.6,13.9C350.9,538.3,350.6,543.8,347.8,547.3z"/>
		<polygon fill="#808285" points="369.7,518.9 363,518.9 363,553.8 367.4,553.8 367.4,524.2 385.1,553.8 391.3,553.8 391.3,518.9 
			386.8,518.9 386.8,547.7 		"/>
		<path fill="#808285" d="M138.1,565.5H128v34.8h9.8c5.1,0,9.4,0,12.8-2.8c2.6-2.1,5.8-6.8,5.8-14.3c0-4.8-1.2-9.6-4.3-13.2
			C148.3,565.5,142.8,565.5,138.1,565.5z M146.7,594.4c-2.3,1.7-5.8,1.9-9.1,1.9h-4.7v-26.9h5.8c4.2,0,7.1,0.6,9.3,3
			c3.3,3.6,3.4,9.6,3.4,10.9C151.3,585.4,151.1,591.1,146.7,594.4z"/>
		<polygon fill="#808285" points="166.6,584.5 182.8,584.5 182.8,580.4 166.6,580.4 166.6,569.6 183.6,569.6 183.6,565.5 
			161.8,565.5 161.8,600.3 184,600.3 184,596.1 166.6,596.1 		"/>
		<polygon fill="#808285" points="208.5,584.5 224.7,584.5 224.7,580.4 208.5,580.4 208.5,569.6 225.5,569.6 225.5,565.5 
			203.7,565.5 203.7,600.3 225.9,600.3 225.9,596.1 208.5,596.1 		"/>
		<polygon fill="#808285" points="251.7,594.2 241.9,565.5 233.4,565.5 233.4,600.3 238,600.3 238,569.1 249,600.3 253.6,600.3 
			265.1,568.9 265.1,600.3 269.8,600.3 269.8,565.5 261.8,565.5 		"/>
		<path fill="#808285" d="M290,565.5h-11.7v34.8h4.8v-15.5h5.6c6.3,0,8.7-1.2,10.5-3c1.9-1.9,2.8-4.2,2.8-6.8c0-2.6-0.8-5-2.6-6.8
			C297.1,565.7,294.2,565.5,290,565.5z M288.9,580.8h-5.7v-11.4h6.8c2.5,0,7,0,7,5.5C296.9,580.5,292.1,580.8,288.9,580.8z"/>
		<polygon fill="#808285" points="312.3,565.5 307.6,565.5 307.6,600.3 328.5,600.3 328.5,596 312.3,596 		"/>
		<polygon fill="#808285" points="337.9,584.5 354.1,584.5 354.1,580.4 337.9,580.4 337.9,569.6 354.9,569.6 354.9,565.5 
			333.1,565.5 333.1,600.3 355.3,600.3 355.3,596.1 337.9,596.1 		"/>
		<path fill="#808285" d="M377.4,564.5c-3.2,0-8,0.8-11.6,4.7c-3.8,4.1-4.5,9.9-4.5,13.9c0,9.6,3.9,18,15.7,18
			c12.4,0,16.1-9.3,16.1-18.6C393.1,570.7,387,564.5,377.4,564.5z M384.9,593.8c-2,2.4-4.9,3.2-7.7,3.2c-2.7,0-5.7-0.7-7.7-3.2
			c-2.4-3-3.1-7.2-3.1-11c0-7.1,2.3-14.2,11.1-14.2c8,0,10.6,6,10.6,13.9C388,584.9,387.7,590.4,384.9,593.8z"/>
		<rect x="417.7" y="512.8" fill="#808285" width="6.4" height="95.8"/>
		<path fill="#808285" d="M481.3,562.7c0,5-0.5,6.9-1.6,8.4c-2.7,4.2-7.9,4.3-9.6,4.3c-10.3,0-10.7-6.8-10.7-12.2v-30.1h-10.6v29.5
			c0,4.6,0.1,8.4,2.5,12.2c4.6,7.4,13.7,8.5,18.6,8.5c10,0,21.6-4.7,21.6-19.4v-30.8h-10.3V562.7z"/>
		<path fill="#808285" d="M511.8,533L494,582.4h10.1l3.7-10.7h19.5l3.6,10.7h10.7L524.4,533H511.8z M510.5,563.8l7.3-21l6.8,21
			H510.5z"/>
		<path fill="#808285" d="M581.8,575.3c2.3-2.2,7.4-7.2,7.4-18.4c0-16.2-9.5-24.9-22.3-24.9c-16.7,0-23.8,12.6-23.8,26
			c0,7.9,3.3,25.1,21.7,25.1c1.2,0,4.4-0.2,7.8-0.4c3.4-0.1,6.8-0.3,8-0.3c3.2,0,9.1,0.1,12.2,0.1v-7.7
			C588.7,574.6,584.1,574.9,581.8,575.3z M566.3,575.5c-10,0-12.1-11.1-12.1-18c0-9,3.1-17.9,12.4-17.9c4.8,0,7.6,2.7,8.9,4.6
			c1.5,2.3,3.1,5.6,3.1,12.6C578.5,564.7,576.6,575.5,566.3,575.5z"/>
		<path fill="#C4C4C4" d="M333.3,478.1c-20.5-16.4-40.4-43-48.7-80c-3.8-16.7-5.2-35.6-3.2-56.7c9.3-97.8-3.2-122.9-32.5-142.2
			c-17.5-11.5-51.6-15.1-78.8,4.9c0,0-33.8,25.5-42.5,81C131.2,392.3,221.9,478.1,333.3,478.1z M239.6,353.4
			c-2.1,31.4,0.5,56.3,6.4,76c-53.7-17.5-75.9-65.8-75.9-104.6C170.1,267.3,247.7,235.5,239.6,353.4z"/>
		<path fill="#C4C4C4" d="M259.9,190.2c19.7,0,35.7-16.7,35.7-37.2c0-20.6-16-37.2-35.7-37.2c-19.7,0-35.7,16.7-35.7,37.2
			C224.2,173.6,240.2,190.2,259.9,190.2z"/>
		<path fill="#00AAA6" d="M539.1,285.6c0-0.1,0-0.1,0-0.2c0-1.2,0-2.4,0-3.5c0,1,0,2-0.1,3.1C539,285.1,539.1,285.3,539.1,285.6z"/>
		<path fill="#00AAA6" d="M127.4,285.4c0,0.2,0,0.3,0,0.5c0-0.2,0.1-0.5,0.1-0.7c0-1.1-0.1-2.2-0.1-3.3
			C127.5,283,127.4,284.2,127.4,285.4z"/>
		<path fill="#00AAA6" d="M427,353.1c2.1,31.4-0.5,56.3-6.3,76c53.7-17.5,75.9-65.8,75.9-104.6C496.5,267,418.9,235.2,427,353.1z"/>
		<path fill="#00AAA6" d="M245.9,429.4c-5.9-19.8-8.5-44.7-6.4-76c8.1-117.9-69.5-86.1-69.5-28.6C170.1,363.6,192.3,412,245.9,429.4
			z"/>
		<path fill="#00AAA6" d="M170.1,204.1c27.2-20,61.3-16.4,78.8-4.9c29.3,19.3,41.9,44.4,32.5,142.2c-2,21-0.6,40,3.2,56.7
			c8.3,36.6,28,62.7,48.5,79.1c29.9-23.8,58.5-68.5,52.1-136.2c-9.3-97.8,3.2-122.9,32.5-142.2c17.5-11.5,51.7-15.9,79,4.1
			c0,0,33.8,26.3,42.4,81.9c0-1,0.1-2,0.1-3.1c-1.9-112.1-93.3-202.3-205.8-202.3c-112.5,0-203.9,90.3-205.8,202.3
			c0,1.1,0,2.2,0.1,3.3C136.2,229.6,170.1,204.1,170.1,204.1z M406.7,115.5c19.7,0,35.7,16.7,35.7,37.2c0,20.5-16,37.2-35.7,37.2
			c-19.7,0-35.7-16.7-35.7-37.2C371,132.1,387,115.5,406.7,115.5z M259.9,115.8c19.7,0,35.7,16.7,35.7,37.2
			c0,20.5-16,37.2-35.7,37.2c-19.7,0-35.7-16.7-35.7-37.2C224.2,132.5,240.2,115.8,259.9,115.8z"/>
	</g>
</g>
</svg>
